<svg width="33" height="31" viewBox="0 0 33 31" fill="none" xmlns="http://www.w3.org/2000/svg">
<path d="M7 19.8516L2 21.1016L9.1875 28.9141L11.2188 24.8516" stroke="black" stroke-width="1.25"/>
<path d="M19.2657 12.9834C21.3404 12.9834 23.022 11.3018 23.022 9.22702C23.022 7.15227 21.3404 5.47065 19.2657 5.47065C17.1909 5.47065 15.5088 7.15227 15.5088 9.22702C15.5088 11.3018 17.1909 12.9834 19.2657 12.9834Z" stroke="black" stroke-width="1.25"/>
<path d="M19.7349 9.53906C20.2836 9.53906 20.729 9.09381 20.729 8.54444C20.729 7.99556 20.2836 7.55031 19.7349 7.55031C19.1855 7.55031 18.7402 7.99556 18.7402 8.54444C18.7402 9.09381 19.1855 9.53906 19.7349 9.53906Z" fill="#231F20"/>
<path d="M25.5938 9.07715C27.6685 9.07715 29.3502 7.39552 29.3502 5.32077C29.3502 3.24602 27.6685 1.5644 25.5938 1.5644C23.519 1.5644 21.8369 3.24602 21.8369 5.32077C21.8369 7.39552 23.519 9.07715 25.5938 9.07715Z" stroke="black" stroke-width="1.25"/>
<path d="M26.063 5.63281C26.6119 5.63281 27.0571 5.18756 27.0571 4.63819C27.0571 4.08931 26.6119 3.64406 26.063 3.64406C25.5136 3.64406 25.0684 4.08931 25.0684 4.63819C25.0684 5.18756 25.5136 5.63281 26.063 5.63281Z" fill="#231F20"/>
<path d="M11.688 13.2889C11.688 13.2889 7.00048 13.1327 8.40673 15.7889C9.81298 18.4452 12.313 17.3514 12.313 17.3514C12.313 17.3514 10.438 20.6327 12.7817 20.9452C15.1255 21.2577 16.3755 19.8514 16.3755 19.8514C16.3755 19.8514 16.3755 26.1014 20.438 20.6327" stroke="black" stroke-width="1.25"/>
<path d="M31.4531 13.0545C31.4531 13.0545 31.7656 14.1483 27.7031 15.242C23.6406 16.3358 21.2969 16.492 21.2969 16.492L23.4844 18.8358C23.4844 18.8358 31.1406 23.6795 31.4531 13.0545Z" fill="black"/>
<path d="M25.5942 18.0332C26.1431 18.0332 26.5884 17.5885 26.5884 17.0391C26.5884 16.4897 26.1431 16.0445 25.5942 16.0445C25.0449 16.0445 24.5996 16.4897 24.5996 17.0391C24.5996 17.5885 25.0449 18.0332 25.5942 18.0332Z" fill="white"/>
<path d="M29.3652 16.9395C29.9145 16.9395 30.3598 16.4947 30.3598 15.9453C30.3598 15.396 29.9145 14.9507 29.3652 14.9507C28.8163 14.9507 28.3711 15.396 28.3711 15.9453C28.3711 16.4947 28.8163 16.9395 29.3652 16.9395Z" fill="white"/>
<path d="M29.6567 13.502C30.2056 13.502 30.6509 13.0572 30.6509 12.5078C30.6509 11.9585 30.2056 11.5132 29.6567 11.5132C29.1074 11.5132 28.6621 11.9585 28.6621 12.5078C28.6621 13.0572 29.1074 13.502 29.6567 13.502Z" fill="#231F20"/>
<path d="M26.2974 14.3613C26.8461 14.3613 27.2915 13.9166 27.2915 13.3672C27.2915 12.8178 26.8461 12.3726 26.2974 12.3726C25.748 12.3726 25.3027 12.8178 25.3027 13.3672C25.3027 13.9166 25.748 14.3613 26.2974 14.3613Z" fill="#231F20"/>
<path fill-rule="evenodd" clip-rule="evenodd" d="M18.5621 26.6709C11.58 26.6709 5.92871 21.0596 5.92871 14.1484C5.92871 7.23728 11.5801 1.62544 18.5621 1.62544C20.1781 1.62544 21.7229 1.92607 23.1427 2.47388C23.5436 2.1285 24.0183 1.86635 24.5398 1.71423C22.7291 0.8559 20.7018 0.375437 18.5621 0.375437C10.8996 0.375437 4.67871 6.53709 4.67871 14.1484C4.67871 21.7598 10.8996 27.9209 18.5621 27.9209C26.2246 27.9209 32.4453 21.7598 32.4453 14.1484C32.4453 12.6989 32.2197 11.3019 31.8015 9.99007C32.0312 13.5079 31.5312 13.7578 31.5312 13.7578L31.1809 13.5437C31.1905 13.7441 31.1953 13.9457 31.1953 14.1484C31.1953 21.0596 25.5441 26.6709 18.5621 26.6709ZM29.3471 5.47476C29.6316 5.82244 29.8993 6.18415 30.1491 6.5587C29.8515 6.47679 29.5239 6.44387 29.1777 6.44938C29.2751 6.13987 29.3334 5.81308 29.3471 5.47476Z" fill="black"/>
<path fill-rule="evenodd" clip-rule="evenodd" d="M32.31 8.54146C32.5472 10.9924 32.5029 12.5149 32.3904 13.4426C32.3339 13.9074 32.2598 14.2283 32.1925 14.445C32.1588 14.5535 32.1266 14.6367 32.0988 14.6992C32.0848 14.7305 32.072 14.7567 32.0606 14.7784C32.0549 14.7892 32.0496 14.7989 32.0446 14.8075L32.0375 14.8197L32.0342 14.8252L32.0326 14.8278L32.0318 14.829C32.0314 14.8297 32.031 14.8303 31.5004 14.5001C30.9697 14.1699 30.9693 14.1705 30.969 14.1711L30.9682 14.1723L30.9668 14.1746L30.9642 14.179L30.9599 14.1863L30.9547 14.1958C30.9539 14.1973 30.9535 14.198 30.9536 14.1979L30.9566 14.1914C30.9628 14.1773 30.9782 14.1403 30.9987 14.0743C31.0398 13.9418 31.1004 13.6963 31.1495 13.292C31.2478 12.4814 31.2973 11.0547 31.0658 8.66187C31.016 8.14743 30.8706 7.81799 30.6975 7.60333C30.5266 7.39144 30.2924 7.24609 29.982 7.16094C29.6766 7.07717 29.3137 7.05623 28.91 7.08764C29.116 6.70182 29.2566 6.27581 29.3171 5.82442C29.6619 5.82891 29.9972 5.86893 30.3127 5.95548C30.83 6.09738 31.3074 6.36829 31.6705 6.81863C32.0315 7.26621 32.2426 7.84496 32.31 8.54146ZM22.9333 7.97269C23.2638 8.30422 23.6559 8.57434 24.0909 8.76447C23.9588 8.8341 23.8428 8.89689 23.7459 8.95033C23.6379 9.00986 23.5537 9.05767 23.4971 9.09023C23.4688 9.1065 23.4474 9.11896 23.4334 9.12716L23.4181 9.1362L23.4147 9.13821L23.414 9.13858L23.414 9.1386C23.4141 9.13856 23.4142 9.13851 23.0941 8.60167C22.7741 8.06482 22.7742 8.06473 22.7744 8.06462L22.7749 8.06431L22.7766 8.06336L22.782 8.06015L22.8015 8.04868C22.8182 8.03885 22.8425 8.02469 22.8739 8.00668C22.8915 7.99655 22.9113 7.98519 22.9333 7.97269Z" fill="black"/>
</svg>
