<?xml version="1.0" encoding="UTF-8" standalone="no"?>
<!-- Created with Inkscape (http://www.inkscape.org/) -->

<svg
   version="1.1"
   id="svg2"
   xml:space="preserve"
   width="666.66669"
   height="666.66669"
   viewBox="0 0 666.66669 666.66669"
   sodipodi:docname="6613246.eps"
   xmlns:inkscape="http://www.inkscape.org/namespaces/inkscape"
   xmlns:sodipodi="http://sodipodi.sourceforge.net/DTD/sodipodi-0.dtd"
   xmlns="http://www.w3.org/2000/svg"
   xmlns:svg="http://www.w3.org/2000/svg"><defs
     id="defs6" /><sodipodi:namedview
     id="namedview4"
     pagecolor="#ffffff"
     bordercolor="#666666"
     borderopacity="1.0"
     inkscape:pageshadow="2"
     inkscape:pageopacity="0.0"
     inkscape:pagecheckerboard="0" /><g
     id="g8"
     inkscape:groupmode="layer"
     inkscape:label="ink_ext_XXXXXX"
     transform="matrix(1.3333333,0,0,-1.3333333,0,666.66667)"><g
       id="g10"
       transform="scale(0.1)"><path
         d="M 5000,0 H 0 V 5000 H 5000 V 0"
         style="fill:#ffffff;fill-opacity:1;fill-rule:nonzero;stroke:none"
         id="path12" /><path
         d="m 3774.2,3796.48 c 0,0 234.65,38.05 388.96,-188.14 154.33,-226.19 156.44,-240.99 156.44,-240.99 0,0 57.08,29.59 80.33,0 23.25,-29.6 -29.6,-65.53 -29.6,-65.53 0,0 65.54,8.45 59.19,-16.91 -6.34,-25.37 -38.05,-33.83 -38.05,-33.83 0,0 109.93,-143.75 -33.82,-435.47 -143.74,-291.72 -344.57,-325.55 -372.05,-314.98 -27.49,10.57 -61.3,21.14 -61.3,21.14 0,0 -139.52,-188.14 -401.65,-114.15 -262.13,73.99 -350.92,234.65 -350.92,234.65 0,0 -295.96,120.49 -308.63,501 -12.69,380.51 219.84,427.02 219.84,427.02 0,0 -35.94,40.16 -4.23,63.42 31.71,23.25 54.97,-29.6 54.97,-29.6 0,0 -25.37,76.1 4.22,84.56 29.6,8.45 61.31,-44.39 61.31,-44.39 0,0 150.09,157.02 289.61,154.61 139.52,-2.41 183.91,0.03 183.91,0.03 0,0 0,69.43 23.26,58.86 23.25,-10.56 23.25,-48.61 23.25,-48.61 0,0 31.71,63.49 57.08,49.71 25.36,-13.78 -2.12,-62.4 -2.12,-62.4 z"
         style="fill:none;stroke:#0b0906;stroke-width:30;stroke-linecap:round;stroke-linejoin:round;stroke-miterlimit:10;stroke-dasharray:none;stroke-opacity:1"
         id="path14" /><path
         d="m 3573.38,2948.79 c 36.74,3.7 145.91,5.05 145.86,-23.25 -0.06,-40.22 -71.88,-80.33 -103.59,-65.54 -31.7,14.8 -71.56,85.84 -42.27,88.79 z"
         style="fill:none;stroke:#0b0906;stroke-width:30;stroke-linecap:round;stroke-linejoin:round;stroke-miterlimit:10;stroke-dasharray:none;stroke-opacity:1"
         id="path16" /><path
         d="m 4090.46,3140.66 c -9.06,-75.34 -61.99,-130.93 -118.21,-124.16 -56.22,6.77 -94.44,73.33 -85.38,148.68 9.08,75.34 62.01,130.93 118.23,124.16 56.21,-6.77 94.43,-73.33 85.36,-148.68"
         style="fill:#0b0906;fill-opacity:1;fill-rule:nonzero;stroke:none"
         id="path18" /><path
         d="m 3478.13,3214.38 c -9.07,-75.34 -62,-130.93 -118.22,-124.17 -56.21,6.77 -94.43,73.34 -85.36,148.68 9.07,75.34 61.99,130.94 118.21,124.17 56.22,-6.77 94.44,-73.33 85.37,-148.68"
         style="fill:#0b0906;fill-opacity:1;fill-rule:nonzero;stroke:none"
         id="path20" /><path
         d="m 3630.4,2856.91 c 0,0 29.65,-210.42 209.34,-108.95"
         style="fill:none;stroke:#0b0906;stroke-width:30;stroke-linecap:round;stroke-linejoin:round;stroke-miterlimit:10;stroke-dasharray:none;stroke-opacity:1"
         id="path22" /><path
         d="m 3395.81,2824.07 c 0,0 46.5,-82.45 120.49,-61.31 73.99,21.14 114.1,94.15 114.1,94.15"
         style="fill:none;stroke:#0b0906;stroke-width:30;stroke-linecap:round;stroke-linejoin:round;stroke-miterlimit:10;stroke-dasharray:none;stroke-opacity:1"
         id="path24" /><path
         d="m 4059.58,2903.81 c 0,0 190.26,23.84 422.79,-157.96"
         style="fill:none;stroke:#0b0906;stroke-width:30;stroke-linecap:round;stroke-linejoin:round;stroke-miterlimit:10;stroke-dasharray:none;stroke-opacity:1"
         id="path26" /><path
         d="m 4051.13,2788.61 c 0,0 145.86,-66.01 266.36,-249.93"
         style="fill:none;stroke:#0b0906;stroke-width:30;stroke-linecap:round;stroke-linejoin:round;stroke-miterlimit:10;stroke-dasharray:none;stroke-opacity:1"
         id="path28" /><path
         d="m 3956.01,2686.66 c 0,0 95.12,-80.33 150.08,-264.24"
         style="fill:none;stroke:#0b0906;stroke-width:30;stroke-linecap:round;stroke-linejoin:round;stroke-miterlimit:10;stroke-dasharray:none;stroke-opacity:1"
         id="path30" /><path
         d="m 3268.96,3027.01 c 0,0 -257.9,78.21 -551.73,-21.15"
         style="fill:none;stroke:#0b0906;stroke-width:30;stroke-linecap:round;stroke-linejoin:round;stroke-miterlimit:10;stroke-dasharray:none;stroke-opacity:1"
         id="path32" /><path
         d="m 3205.55,2931.88 c 0,0 -270.58,-51.89 -412.22,-143.27"
         style="fill:none;stroke:#0b0906;stroke-width:30;stroke-linecap:round;stroke-linejoin:round;stroke-miterlimit:10;stroke-dasharray:none;stroke-opacity:1"
         id="path34" /><path
         d="m 3178.07,2788.61 c 0,0 -192.37,-51.22 -245.22,-146.34"
         style="fill:none;stroke:#0b0906;stroke-width:30;stroke-linecap:round;stroke-linejoin:round;stroke-miterlimit:10;stroke-dasharray:none;stroke-opacity:1"
         id="path36" /><path
         d="m 2875.96,3031.06 c 0,0 -177.76,-82.27 -234.83,-145.69 -57.08,-63.42 -244.16,-40.16 -475.64,46.51 -231.48,86.67 -602.47,177.63 -906.88,-75.02 C 954.199,2604.21 840.051,2257.53 810.453,1986.94 780.859,1716.36 535.641,1538.79 569.465,1411.95 603.285,1285.12 838.496,929.359 862.426,906.602 1002.49,773.43 979.883,679.988 1055.78,664.5 c 101.3,-20.668 439.07,-32.539 519.91,-2.238 52.8,19.777 16.22,151.699 -16.9,208.519 -83.71,143.619 -234.7,115.867 -260.07,137.009 -25.37,21.14 -136.25,276.11 -136.25,276.11 0,0 409,22.35 624.62,229.52 215.62,207.17 219.85,367.83 160.66,558.08"
         style="fill:none;stroke:#0b0906;stroke-width:30;stroke-linecap:round;stroke-linejoin:round;stroke-miterlimit:10;stroke-dasharray:none;stroke-opacity:1"
         id="path38" /><path
         d="m 1356.86,1312.46 c 0,0 137.99,-299.85 328.13,-425.46 49.07,-32.418 70.4,-224.738 293.42,-240.301 165,-11.5 215.62,88.793 145.86,190.262 -69.76,101.469 -107.81,104.641 -107.81,104.641"
         style="fill:none;stroke:#0b0906;stroke-width:30;stroke-linecap:round;stroke-linejoin:round;stroke-miterlimit:10;stroke-dasharray:none;stroke-opacity:1"
         id="path40" /><path
         d="m 2003.77,1055.75 c 0,0 220.52,-26.98 278.01,-183.289 48.32,-131.379 39.08,-225.762 -33.85,-225.762 -72.93,0 -244.16,0 -244.16,0"
         style="fill:none;stroke:#0b0906;stroke-width:30;stroke-linecap:round;stroke-linejoin:round;stroke-miterlimit:10;stroke-dasharray:none;stroke-opacity:1"
         id="path42" /><path
         d="m 1734.37,1468.86 c 0,0 370.87,-115.04 773.58,-16.74"
         style="fill:none;stroke:#0b0906;stroke-width:30;stroke-linecap:round;stroke-linejoin:round;stroke-miterlimit:10;stroke-dasharray:none;stroke-opacity:1"
         id="path44" /><path
         d="M 2033.46,1050.37 1861.08,1317.86 1985.25,1422"
         style="fill:none;stroke:#0b0906;stroke-width:30;stroke-linecap:round;stroke-linejoin:round;stroke-miterlimit:10;stroke-dasharray:none;stroke-opacity:1"
         id="path46" /><path
         d="m 2574.54,2165.58 c 0,0 -107.81,-596.14 -50.73,-789.56 57.07,-193.43 228.36,-538.79 228.36,-538.79 0,0 117.26,-174.671 218.74,-190.531 101.46,-15.847 233.58,34.883 207.16,126.852 -26.42,91.949 -96.19,114.148 -96.19,114.148"
         style="fill:none;stroke:#0b0906;stroke-width:30;stroke-linecap:round;stroke-linejoin:round;stroke-miterlimit:10;stroke-dasharray:none;stroke-opacity:1"
         id="path48" /><path
         d="m 3218.23,2460.47 c 0,0 123.67,-145.86 72.93,-294.89 -50.73,-149.04 -113.09,-209.29 -113.09,-209.29"
         style="fill:none;stroke:#0b0906;stroke-width:30;stroke-linecap:round;stroke-linejoin:round;stroke-miterlimit:10;stroke-dasharray:none;stroke-opacity:1"
         id="path50" /><path
         d="m 3178.07,2208.38 c 0,0 24.31,-160.3 -48.62,-369.49 -72.94,-209.2 -136.35,-383.61 -136.35,-383.61 l 167.37,-418.25 c 0,0 191.64,-33.81 248.7,-108.108 54.79,-71.352 55.65,-234.652 -45.81,-282.223 h -354.41"
         style="fill:none;stroke:#0b0906;stroke-width:30;stroke-linecap:round;stroke-linejoin:round;stroke-miterlimit:10;stroke-dasharray:none;stroke-opacity:1"
         id="path52" /><path
         d="m 3881.12,2478.05 c 0,0 6.17,-112.09 -54.07,-231.31 -60.24,-119.22 -136.35,-160.44 -136.35,-160.44 0,0 -279.78,-464.72 -671.02,-557.37"
         style="fill:none;stroke:#0b0906;stroke-width:30;stroke-linecap:round;stroke-linejoin:round;stroke-miterlimit:10;stroke-dasharray:none;stroke-opacity:1"
         id="path54" /><path
         d="m 3614.71,1976.8 c 0,0 -140.1,-351.87 -311.32,-549.26 l 156.99,-371.79 c 0,0 208.19,-37.45 258.71,-109.629 66.59,-95.121 82.59,-283.562 -9.36,-299.422 h -374.79"
         style="fill:none;stroke:#0b0906;stroke-width:30;stroke-linecap:round;stroke-linejoin:round;stroke-miterlimit:10;stroke-dasharray:none;stroke-opacity:1"
         id="path56" /><path
         d="m 3570.2,928.922 c 0,0 136.35,-183.922 0,-282.223"
         style="fill:none;stroke:#0b0906;stroke-width:30;stroke-linecap:round;stroke-linejoin:round;stroke-miterlimit:10;stroke-dasharray:none;stroke-opacity:1"
         id="path58" /><path
         d="m 4031.04,3736.99 c 0,0 293.84,404.06 385.81,324.79 91.95,-79.27 221.84,-584.79 3.82,-879.02"
         style="fill:none;stroke:#0b0906;stroke-width:30;stroke-linecap:round;stroke-linejoin:round;stroke-miterlimit:10;stroke-dasharray:none;stroke-opacity:1"
         id="path60" /><path
         d="m 4184.31,3577.28 c 0,0 162.77,351.32 219.85,360.84 57.07,9.51 100.61,-65.16 100.61,-65.16"
         style="fill:none;stroke:#0b0906;stroke-width:30;stroke-linecap:round;stroke-linejoin:round;stroke-miterlimit:10;stroke-dasharray:none;stroke-opacity:1"
         id="path62" /><path
         d="m 3536.77,3798.2 c 0,0 -98.96,508.46 -215.57,474.67 -116.61,-33.8 -446.06,-435 -370.32,-793.28"
         style="fill:none;stroke:#0b0906;stroke-width:30;stroke-linecap:round;stroke-linejoin:round;stroke-miterlimit:10;stroke-dasharray:none;stroke-opacity:1"
         id="path64" /><path
         d="m 3330.81,3748.03 c 0,0 -1.63,374.71 -49.56,407.11 -47.94,32.42 -118.6,-17.35 -118.6,-17.35"
         style="fill:none;stroke:#0b0906;stroke-width:30;stroke-linecap:round;stroke-linejoin:round;stroke-miterlimit:10;stroke-dasharray:none;stroke-opacity:1"
         id="path66" /><path
         d="m 2551.9,2850.58 c 0,0 -234.57,-478.9 -228.04,-764.28 0,0 -171.98,405.98 -44.68,807.05"
         style="fill:none;stroke:#0b0906;stroke-width:30;stroke-linecap:round;stroke-linejoin:round;stroke-miterlimit:10;stroke-dasharray:none;stroke-opacity:1"
         id="path68" /><path
         d="m 2165.49,2931.88 c 0,0 -365.56,-293.23 -444.38,-685.14 0,0 -88.33,556.37 139.97,765.56"
         style="fill:none;stroke:#0b0906;stroke-width:30;stroke-linecap:round;stroke-linejoin:round;stroke-miterlimit:10;stroke-dasharray:none;stroke-opacity:1"
         id="path70" /><path
         d="m 1620.18,3014.71 c 0,0 -266.44,-405.21 -241.08,-709.61 0,0 -152.44,284.37 -1.7,632.09"
         style="fill:none;stroke:#0b0906;stroke-width:30;stroke-linecap:round;stroke-linejoin:round;stroke-miterlimit:10;stroke-dasharray:none;stroke-opacity:1"
         id="path72" /><path
         d="m 1203.39,2808.1 c 0,0 -258.702,-43.22 -372.855,277.04 -114.152,320.26 145.695,938.45 480.305,871.93 334.62,-66.52 277.54,-294.82 512.19,-253.6 234.65,41.22 136.35,456.61 -142.69,589.79 C 1401.3,4426.44 963.711,4461.18 652.965,3957.07 342.211,3452.96 385.152,2753.12 940.785,2448.25"
         style="fill:none;stroke:#0b0906;stroke-width:30;stroke-linecap:round;stroke-linejoin:round;stroke-miterlimit:10;stroke-dasharray:none;stroke-opacity:1"
         id="path74" /><path
         d="m 1113.03,3917.66 c 0,0 18.74,178.38 82.16,248.45 0,0 26.15,-143.08 51.13,-204.56"
         style="fill:none;stroke:#0b0906;stroke-width:30;stroke-linecap:round;stroke-linejoin:round;stroke-miterlimit:10;stroke-dasharray:none;stroke-opacity:1"
         id="path76" /><path
         d="m 996.801,3813.8 c 0,0 -161.508,42.18 -237.613,103.86 0,0 18.863,-172.96 137.855,-262.54"
         style="fill:none;stroke:#0b0906;stroke-width:30;stroke-linecap:round;stroke-linejoin:round;stroke-miterlimit:10;stroke-dasharray:none;stroke-opacity:1"
         id="path78" /><path
         d="m 823.402,3440.11 c 0,0 -166.257,-6.13 -257.132,17.61 0,0 104.597,-186.96 238.339,-239.34"
         style="fill:none;stroke:#0b0906;stroke-width:30;stroke-linecap:round;stroke-linejoin:round;stroke-miterlimit:10;stroke-dasharray:none;stroke-opacity:1"
         id="path80" /><path
         d="m 843.199,3052.5 c 0,0 -104.621,-224.2 -171.211,-287.62 0,0 124.184,-36.17 311.008,102.41"
         style="fill:none;stroke:#0b0906;stroke-width:30;stroke-linecap:round;stroke-linejoin:round;stroke-miterlimit:10;stroke-dasharray:none;stroke-opacity:1"
         id="path82" /><path
         d="m 3994.55,3193.12 c 0,-18.52 -15.01,-33.52 -33.52,-33.52 -18.52,0 -33.52,15 -33.52,33.52 0,18.51 15,33.52 33.52,33.52 18.51,0 33.52,-15.01 33.52,-33.52"
         style="fill:#ffffff;fill-opacity:1;fill-rule:nonzero;stroke:none"
         id="path84" /><path
         d="m 3387.28,3272.17 c 0,-18.51 -15,-33.52 -33.52,-33.52 -18.52,0 -33.52,15.01 -33.52,33.52 0,18.51 15,33.52 33.52,33.52 18.52,0 33.52,-15.01 33.52,-33.52"
         style="fill:#ffffff;fill-opacity:1;fill-rule:nonzero;stroke:none"
         id="path86" /><path
         d="m 1372.68,870.66 c 0,0 116.62,-53.93 81.27,-224.859"
         style="fill:none;stroke:#0b0906;stroke-width:30;stroke-linecap:round;stroke-linejoin:round;stroke-miterlimit:10;stroke-dasharray:none;stroke-opacity:1"
         id="path88" /><path
         d="M 4317.49,646.699 H 499.504"
         style="fill:none;stroke:#0b0906;stroke-width:30;stroke-linecap:round;stroke-linejoin:round;stroke-miterlimit:10;stroke-dasharray:none;stroke-opacity:1"
         id="path90" /><path
         d="m 4510.98,1012.37 c 0,-203.538 -165,-368.538 -368.55,-368.538 -203.53,0 -368.53,165 -368.53,368.538 0,203.55 165,368.55 368.53,368.55 203.55,0 368.55,-165 368.55,-368.55 z"
         style="fill:none;stroke:#0b0906;stroke-width:30;stroke-linecap:round;stroke-linejoin:round;stroke-miterlimit:10;stroke-dasharray:none;stroke-opacity:1"
         id="path92" /><path
         d="m 3930.41,710.992 c 0,0 371.44,74.399 578.63,339.378"
         style="fill:none;stroke:#0b0906;stroke-width:30;stroke-linecap:round;stroke-linejoin:round;stroke-miterlimit:10;stroke-dasharray:none;stroke-opacity:1"
         id="path94" /><path
         d="m 4069.7,651.031 c 0,0 279.51,84.5 434.72,292.199"
         style="fill:none;stroke:#0b0906;stroke-width:30;stroke-linecap:round;stroke-linejoin:round;stroke-miterlimit:10;stroke-dasharray:none;stroke-opacity:1"
         id="path96" /><path
         d="m 4468.34,1002.82 c 0,0 -297.77,217.6 -623.22,227.33"
         style="fill:none;stroke:#0b0906;stroke-width:30;stroke-linecap:round;stroke-linejoin:round;stroke-miterlimit:10;stroke-dasharray:none;stroke-opacity:1"
         id="path98" /><path
         d="m 3903.3,1292.69 c 0,0 373.15,18.91 601.12,-210.99"
         style="fill:none;stroke:#0b0906;stroke-width:30;stroke-linecap:round;stroke-linejoin:round;stroke-miterlimit:10;stroke-dasharray:none;stroke-opacity:1"
         id="path100" /><path
         d="m 4040.22,1366.45 c 0,0 291.58,-59.79 419.12,-165.94"
         style="fill:none;stroke:#0b0906;stroke-width:30;stroke-linecap:round;stroke-linejoin:round;stroke-miterlimit:10;stroke-dasharray:none;stroke-opacity:1"
         id="path102" /><path
         d="m 4278.11,1113.15 c 0,0 19.18,-157.939 -74.24,-302.841"
         style="fill:none;stroke:#0b0906;stroke-width:30;stroke-linecap:round;stroke-linejoin:round;stroke-miterlimit:10;stroke-dasharray:none;stroke-opacity:1"
         id="path104" /><path
         d="m 4193.31,1150.7 c 0,0 -3.34,-197.669 -108.08,-392.47"
         style="fill:none;stroke:#0b0906;stroke-width:30;stroke-linecap:round;stroke-linejoin:round;stroke-miterlimit:10;stroke-dasharray:none;stroke-opacity:1"
         id="path106" /><path
         d="m 4085.23,1187.38 c 0,0 -8.74,-265.548 -118.72,-467.65"
         style="fill:none;stroke:#0b0906;stroke-width:30;stroke-linecap:round;stroke-linejoin:round;stroke-miterlimit:10;stroke-dasharray:none;stroke-opacity:1"
         id="path108" /><path
         d="m 4276.89,1023.99 c 0,0 64.95,-63.771 112.01,-95.068"
         style="fill:none;stroke:#0b0906;stroke-width:30;stroke-linecap:round;stroke-linejoin:round;stroke-miterlimit:10;stroke-dasharray:none;stroke-opacity:1"
         id="path110" /><path
         d="m 3786.35,917.211 c 0,0 141.03,52.129 288.87,164.489"
         style="fill:none;stroke:#0b0906;stroke-width:30;stroke-linecap:round;stroke-linejoin:round;stroke-miterlimit:10;stroke-dasharray:none;stroke-opacity:1"
         id="path112" /><path
         d="m 3773.9,1012.37 c 0,0 187.38,97.55 269.75,188.14"
         style="fill:none;stroke:#0b0906;stroke-width:30;stroke-linecap:round;stroke-linejoin:round;stroke-miterlimit:10;stroke-dasharray:none;stroke-opacity:1"
         id="path114" /><path
         d="m 3834.23,810.309 c 0,0 145.91,61.511 209.42,110.793"
         style="fill:none;stroke:#0b0906;stroke-width:30;stroke-linecap:round;stroke-linejoin:round;stroke-miterlimit:10;stroke-dasharray:none;stroke-opacity:1"
         id="path116" /><path
         d="m 179.102,2346.52 c 0,0 -22.508,39.88 -12.106,59.37 10.41,19.48 49.219,-38.24 74.078,-45.33 24.856,-7.09 189.063,33.29 234.629,-20.21 45.563,-53.49 19.649,-118.63 -26.808,-137.37 -46.454,-18.74 -199.692,67.64 -230.004,52.95 -30.313,-14.7 -65.805,-38.04 -71.922,-11.64 -6.117,26.39 32.133,102.23 32.133,102.23 z"
         style="fill:none;stroke:#0b0906;stroke-width:30;stroke-linecap:round;stroke-linejoin:round;stroke-miterlimit:10;stroke-dasharray:none;stroke-opacity:1"
         id="path118" /><path
         d="m 369.918,2368.5 c 0,0 -55.172,-85.91 -13.418,-150.71"
         style="fill:none;stroke:#0b0906;stroke-width:30;stroke-linecap:round;stroke-linejoin:round;stroke-miterlimit:10;stroke-dasharray:none;stroke-opacity:1"
         id="path120" /><path
         d="m 454.922,2305.5 c 0,-3.22 -2.613,-5.84 -5.828,-5.84 -3.227,0 -5.836,2.62 -5.836,5.84 0,3.22 2.609,5.83 5.836,5.83 3.215,0 5.828,-2.61 5.828,-5.83 z"
         style="fill:none;stroke:#0b0906;stroke-width:30;stroke-linecap:round;stroke-linejoin:round;stroke-miterlimit:10;stroke-dasharray:none;stroke-opacity:1"
         id="path122" /><path
         d="m 2464.41,3716.09 c 0,0 41.97,18.31 60.29,5.97 18.32,-12.35 -43.07,-45.05 -52.66,-69.05 -9.59,-24.01 13.78,-191.48 -44.1,-231.34 -57.86,-39.85 -120.02,-7.41 -133.91,40.71 -13.88,48.13 87.71,191.73 76.19,223.39 -11.52,31.65 -31.11,69.35 -4.22,72.74 26.88,3.38 98.41,-42.42 98.41,-42.42 z"
         style="fill:none;stroke:#0b0906;stroke-width:30;stroke-linecap:round;stroke-linejoin:round;stroke-miterlimit:10;stroke-dasharray:none;stroke-opacity:1"
         id="path124" /><path
         d="m 2466.75,3524.03 c 0,0 -79.81,63.66 -148.54,28.75"
         style="fill:none;stroke:#0b0906;stroke-width:30;stroke-linecap:round;stroke-linejoin:round;stroke-miterlimit:10;stroke-dasharray:none;stroke-opacity:1"
         id="path126" /><path
         d="m 2395.4,3445.91 c -3.21,0.33 -5.54,3.19 -5.21,6.39 0.33,3.21 3.19,5.54 6.4,5.21 3.2,-0.33 5.54,-3.19 5.21,-6.4 -0.33,-3.2 -3.2,-5.53 -6.4,-5.2 z"
         style="fill:none;stroke:#0b0906;stroke-width:30;stroke-linecap:round;stroke-linejoin:round;stroke-miterlimit:10;stroke-dasharray:none;stroke-opacity:1"
         id="path128" /><path
         d="m 4033.09,4578.59 c 0,0 -31.78,32.97 -26.59,54.44 5.2,21.48 57.23,-24.69 83.07,-25.33 25.84,-0.63 174.71,79.58 232.22,39.2 57.51,-40.37 48.73,-109.93 8.44,-139.7 -40.28,-29.78 -210.26,15.47 -235.92,-6.34 -25.68,-21.82 -54.19,-53.32 -66.72,-29.29 -12.54,24.03 5.5,107.02 5.5,107.02 z"
         style="fill:none;stroke:#0b0906;stroke-width:30;stroke-linecap:round;stroke-linejoin:round;stroke-miterlimit:10;stroke-dasharray:none;stroke-opacity:1"
         id="path130" /><path
         d="m 4212.32,4647.65 c 0,0 -31.89,-96.99 24.76,-149.26"
         style="fill:none;stroke:#0b0906;stroke-width:30;stroke-linecap:round;stroke-linejoin:round;stroke-miterlimit:10;stroke-dasharray:none;stroke-opacity:1"
         id="path132" /><path
         d="m 4310.4,4607.95 c 0.8,-3.11 -1.07,-6.3 -4.19,-7.11 -3.11,-0.8 -6.3,1.07 -7.11,4.2 -0.81,3.11 1.07,6.29 4.19,7.1 3.12,0.81 6.3,-1.07 7.11,-4.19 z"
         style="fill:none;stroke:#0b0906;stroke-width:30;stroke-linecap:round;stroke-linejoin:round;stroke-miterlimit:10;stroke-dasharray:none;stroke-opacity:1"
         id="path134" /><path
         d="m 4709.82,1699.77 c 0,0 41.45,19.46 44.25,41.38 2.8,21.92 -62.26,-2.67 -86.64,5.95 -24.36,8.62 -134.84,136.64 -202.97,119.42 -68.12,-17.21 -84.72,-85.33 -57.71,-127.52 27.02,-42.17 201.97,-60.5 218.17,-90.04 16.19,-29.54 31.61,-69.13 51.89,-51.15 20.28,17.98 33.01,101.96 33.01,101.96 z"
         style="fill:none;stroke:#0b0906;stroke-width:30;stroke-linecap:round;stroke-linejoin:round;stroke-miterlimit:10;stroke-dasharray:none;stroke-opacity:1"
         id="path136" /><path
         d="m 4567,1828.19 c 0,0 -4.78,-101.99 -76.35,-130.62"
         style="fill:none;stroke:#0b0906;stroke-width:30;stroke-linecap:round;stroke-linejoin:round;stroke-miterlimit:10;stroke-dasharray:none;stroke-opacity:1"
         id="path138" /><path
         d="m 4461.21,1826.07 c -1.86,-2.62 -1.25,-6.27 1.38,-8.13 2.62,-1.87 6.27,-1.25 8.13,1.38 1.87,2.62 1.25,6.27 -1.37,8.13 -2.63,1.87 -6.27,1.25 -8.14,-1.38 z"
         style="fill:none;stroke:#0b0906;stroke-width:30;stroke-linecap:round;stroke-linejoin:round;stroke-miterlimit:10;stroke-dasharray:none;stroke-opacity:1"
         id="path140" /><path
         d="m 600.395,4689.74 c 0,0 2.402,45.73 -15.59,58.55 -17.992,12.82 -27.047,-56.16 -46.149,-73.57 -19.105,-17.41 -184.113,-54.37 -201.097,-122.55 -16.989,-68.19 35.218,-114.98 85.16,-111.07 49.937,3.9 148.691,149.47 182.379,149.81 33.687,0.34 75.859,-4.77 69.586,21.59 -6.278,26.37 -74.289,77.24 -74.289,77.24 z"
         style="fill:none;stroke:#0b0906;stroke-width:30;stroke-linecap:round;stroke-linejoin:round;stroke-miterlimit:10;stroke-dasharray:none;stroke-opacity:1"
         id="path142" /><path
         d="m 419.75,4624.46 c 0,0 87.652,-52.36 79.105,-128.97"
         style="fill:none;stroke:#0b0906;stroke-width:30;stroke-linecap:round;stroke-linejoin:round;stroke-miterlimit:10;stroke-dasharray:none;stroke-opacity:1"
         id="path144" /><path
         d="m 371.68,4530.21 c 1.433,-2.89 4.937,-4.06 7.824,-2.63 2.883,1.44 4.055,4.94 2.625,7.83 -1.438,2.88 -4.938,4.05 -7.82,2.62 -2.887,-1.43 -4.059,-4.93 -2.629,-7.82 z"
         style="fill:none;stroke:#0b0906;stroke-width:30;stroke-linecap:round;stroke-linejoin:round;stroke-miterlimit:10;stroke-dasharray:none;stroke-opacity:1"
         id="path146" /><path
         d="m 1441.41,3282.34 c 0,-30.76 -24.94,-55.7 -55.7,-55.7 -30.77,0 -55.71,24.94 -55.71,55.7 0,30.77 24.94,55.71 55.71,55.71 30.76,0 55.7,-24.94 55.7,-55.71 z"
         style="fill:none;stroke:#0b0906;stroke-width:30;stroke-linecap:round;stroke-linejoin:round;stroke-miterlimit:10;stroke-dasharray:none;stroke-opacity:1"
         id="path148" /><path
         d="m 396.586,3877.04 c 0,-30.77 -24.941,-55.71 -55.707,-55.71 -30.766,0 -55.707,24.94 -55.707,55.71 0,30.76 24.941,55.7 55.707,55.7 30.766,0 55.707,-24.94 55.707,-55.7 z"
         style="fill:none;stroke:#0b0906;stroke-width:30;stroke-linecap:round;stroke-linejoin:round;stroke-miterlimit:10;stroke-dasharray:none;stroke-opacity:1"
         id="path150" /><path
         d="m 2413.43,4384.14 c 0,-30.76 -24.94,-55.7 -55.71,-55.7 -30.76,0 -55.7,24.94 -55.7,55.7 0,30.77 24.94,55.72 55.7,55.72 30.77,0 55.71,-24.95 55.71,-55.72 z"
         style="fill:none;stroke:#0b0906;stroke-width:30;stroke-linecap:round;stroke-linejoin:round;stroke-miterlimit:10;stroke-dasharray:none;stroke-opacity:1"
         id="path152" /><path
         d="m 4685.7,2586.56 c 0,-30.76 -24.94,-55.71 -55.7,-55.71 -30.76,0 -55.7,24.95 -55.7,55.71 0,30.76 24.94,55.71 55.7,55.71 30.76,0 55.7,-24.95 55.7,-55.71 z"
         style="fill:none;stroke:#0b0906;stroke-width:30;stroke-linecap:round;stroke-linejoin:round;stroke-miterlimit:10;stroke-dasharray:none;stroke-opacity:1"
         id="path154" /><path
         d="m 4061.64,371.422 c 0,-30.781 -24.94,-55.723 -55.7,-55.723 -30.77,0 -55.72,24.942 -55.72,55.723 0,30.758 24.95,55.699 55.72,55.699 30.76,0 55.7,-24.941 55.7,-55.699 z"
         style="fill:none;stroke:#0b0906;stroke-width:30;stroke-linecap:round;stroke-linejoin:round;stroke-miterlimit:10;stroke-dasharray:none;stroke-opacity:1"
         id="path156" /><path
         d="m 504.797,1230.15 c 0,-30.76 -24.942,-55.71 -55.703,-55.71 -30.77,0 -55.711,24.95 -55.711,55.71 0,30.77 24.941,55.7 55.711,55.7 30.761,0 55.703,-24.93 55.703,-55.7 z"
         style="fill:none;stroke:#0b0906;stroke-width:30;stroke-linecap:round;stroke-linejoin:round;stroke-miterlimit:10;stroke-dasharray:none;stroke-opacity:1"
         id="path158" /><path
         d="m 3937,1730.7 c 0,-30.76 -24.93,-55.7 -55.7,-55.7 -30.76,0 -55.7,24.94 -55.7,55.7 0,30.77 24.94,55.72 55.7,55.72 30.77,0 55.7,-24.95 55.7,-55.72 z"
         style="fill:none;stroke:#0b0906;stroke-width:30;stroke-linecap:round;stroke-linejoin:round;stroke-miterlimit:10;stroke-dasharray:none;stroke-opacity:1"
         id="path160" /><path
         d="m 3790.77,4166.11 c 0,-30.76 -24.94,-55.7 -55.7,-55.7 -30.77,0 -55.71,24.94 -55.71,55.7 0,30.77 24.94,55.71 55.71,55.71 30.76,0 55.7,-24.94 55.7,-55.71 z"
         style="fill:none;stroke:#0b0906;stroke-width:30;stroke-linecap:round;stroke-linejoin:round;stroke-miterlimit:10;stroke-dasharray:none;stroke-opacity:1"
         id="path162" /><path
         d="m 2221.2,315.699 c 0,-30.758 -24.95,-55.699 -55.71,-55.699 -30.76,0 -55.7,24.941 -55.7,55.699 0,30.77 24.94,55.723 55.7,55.723 30.76,0 55.71,-24.953 55.71,-55.723 z"
         style="fill:none;stroke:#0b0906;stroke-width:30;stroke-linecap:round;stroke-linejoin:round;stroke-miterlimit:10;stroke-dasharray:none;stroke-opacity:1"
         id="path164" /></g></g></svg>
