<?xml version="1.0" encoding="UTF-8" standalone="no"?>
<!-- Created with Inkscape (http://www.inkscape.org/) -->

<svg
  version="1.1"
  id="svg2"
  xml:space="preserve"
  width="5333.3335"
  height="5333.3335"
  viewBox="0 0 5333.3335 5333.3335"
  sodipodi:docname="vecteezy_cute-little-monkey-outline-coloring-page-for-kids-animal_7908842.eps"
  xmlns:inkscape="http://www.inkscape.org/namespaces/inkscape"
  xmlns:sodipodi="http://sodipodi.sourceforge.net/DTD/sodipodi-0.dtd"
  xmlns="http://www.w3.org/2000/svg"
  xmlns:svg="http://www.w3.org/2000/svg"><defs
     id="defs6" /><sodipodi:namedview
     id="namedview4"
     pagecolor="#ffffff"
     bordercolor="#666666"
     borderopacity="1.0"
     inkscape:pageshadow="2"
     inkscape:pageopacity="0.0"
     inkscape:pagecheckerboard="0" /><g
     id="g8"
     inkscape:groupmode="layer"
     inkscape:label="ink_ext_XXXXXX"
     transform="matrix(1.3333333,0,0,-1.3333333,0,5333.3333)"><g
       id="g10"
       transform="scale(0.1)"><path
         d="m 20212.1,23679.6 c 0,0 932,-46.4 1351.1,399 0,0 1463.7,408.9 673.8,2598.2 0,0 -445,1167 -1946.3,1047.3 0,0 -242.1,942.8 -597.4,1205.5 0,0 225.2,83.1 453.5,-227.9 0,0 -133.1,943.7 -1369,1595.1 0,0 -262.7,164.9 -320.3,198.4 0,0 -1323,719.3 -1637.5,1680.8 0,0 -214.5,546.9 -114.4,1258.2 0,0 -579.1,-124.2 -680,-1131.3 0,0 -478.1,342.3 -756.9,1036.6 0,0 -207.3,-580.8 8,-1005.3 0,0 -1838.1,1078.6 -4283.9,-312.3 0,0 430.7,-38 585.3,-206 0,0 -700.6,-120.6 -1565.2,-914.6 0,0 -859.16,920.9 -2223.7,650.1 0,0 -923.98,-265.4 -1253.72,-1736.3 0,0 -252.9,-1503 860.54,-1850.6 0,0 305.62,-294 691.65,-376.2 0,0 -153.71,-352.1 -164.43,-538 0,0 369.95,346.8 743.48,289.6 0,0 -1083.04,-1054.5 -636.25,-2285.4 0,0 175.16,373 330.64,487.4 0,0 -219.83,-1251 744.37,-1908.3 0,0 369.95,-706.4 1080.32,-998.6 0,0 115.3,-50.9 175.2,-181.4 0,0 468.2,-932.9 2008.4,-1578.5 0,0 1337.3,-648.4 2811.7,18.3 0,0 1001.7,-41.1 1730.9,165.3 0,0 1238.5,-42.9 1987.8,1061.6 0,0 223.9,-182.3 253.4,-584.4 0,0 458.4,864.1 241.2,1998.5 0,0 462.5,-445 668.9,-479.8 0,0 135.4,195.2 148.8,625 z"
         style="fill:none;stroke:#211c1d;stroke-width:75;stroke-linecap:round;stroke-linejoin:round;stroke-miterlimit:10;stroke-dasharray:none;stroke-opacity:1"
         id="path14" /><path
         d="m 8087.67,27588.3 c 0,0 890.03,1313.6 2273.33,1269.8 -7.4,0.2 -4.4,239.2 -4,253 6.4,192.5 27.2,396.1 85.3,580.1 51,161.5 91.1,278.9 32.8,443.2 -56.8,159.7 -125.3,310.5 -216.7,453.7 -71.3,111.5 -154.8,216.7 -245.5,313.2"
         style="fill:none;stroke:#211c1d;stroke-width:75;stroke-linecap:round;stroke-linejoin:round;stroke-miterlimit:10;stroke-dasharray:none;stroke-opacity:1"
         id="path16" /><path
         d="m 20212.1,23679.6 c 0,0 -271.7,1465.5 -1347.6,2209 0,0 729.2,479 1002.7,1685.4 0,0 193.8,161.7 423.5,150.1"
         style="fill:none;stroke:#211c1d;stroke-width:75;stroke-linecap:round;stroke-linejoin:round;stroke-miterlimit:10;stroke-dasharray:none;stroke-opacity:1"
         id="path18" /><path
         d="m 21548,24063 c 0,0 470.9,622.8 406.6,1262.2"
         style="fill:none;stroke:#211c1d;stroke-width:75;stroke-linecap:round;stroke-linejoin:round;stroke-miterlimit:10;stroke-dasharray:none;stroke-opacity:1"
         id="path20" /><path
         d="m 7411.39,27950.4 c 0,0 -410.35,569 -383.54,1189.2"
         style="fill:none;stroke:#211c1d;stroke-width:75;stroke-linecap:round;stroke-linejoin:round;stroke-miterlimit:10;stroke-dasharray:none;stroke-opacity:1"
         id="path22" /><path
         d="m 9033.75,28475.5 c 0,0 -492.12,848.2 530.15,1207.4 0,0 -897.18,1424.4 -2155.38,591.5"
         style="fill:none;stroke:#211c1d;stroke-width:75;stroke-linecap:round;stroke-linejoin:round;stroke-miterlimit:10;stroke-dasharray:none;stroke-opacity:1"
         id="path24" /><path
         d="m 9059.72,30218.8 c 0,0 -538.66,111.5 -703.53,-167.3"
         style="fill:none;stroke:#211c1d;stroke-width:75;stroke-linecap:round;stroke-linejoin:round;stroke-miterlimit:10;stroke-dasharray:none;stroke-opacity:1"
         id="path26" /><path
         d="m 19867.2,27574 c 0,0 -101.9,55.4 -348.5,-12.5"
         style="fill:none;stroke:#211c1d;stroke-width:75;stroke-linecap:round;stroke-linejoin:round;stroke-miterlimit:10;stroke-dasharray:none;stroke-opacity:1"
         id="path28" /><path
         d="m 19952.3,24481.3 c 0,0 533.2,952.5 -555.2,1330.5 0,0 829.3,1363.6 2130.4,641.6"
         style="fill:none;stroke:#211c1d;stroke-width:75;stroke-linecap:round;stroke-linejoin:round;stroke-miterlimit:10;stroke-dasharray:none;stroke-opacity:1"
         id="path30" /><path
         d="m 19793.3,26264 c 0,0 567.6,185.8 810.2,-56.8"
         style="fill:none;stroke:#211c1d;stroke-width:75;stroke-linecap:round;stroke-linejoin:round;stroke-miterlimit:10;stroke-dasharray:none;stroke-opacity:1"
         id="path32" /><path
         d="m 12060.6,22133.7 c 0,0 535.3,-723.8 2004.4,-495.9"
         style="fill:none;stroke:#211c1d;stroke-width:75;stroke-linecap:round;stroke-linejoin:round;stroke-miterlimit:10;stroke-dasharray:none;stroke-opacity:1"
         id="path34" /><path
         d="m 10705.9,25163 c 0,0 538.9,-25.4 840,207.3"
         style="fill:none;stroke:#211c1d;stroke-width:75;stroke-linecap:round;stroke-linejoin:round;stroke-miterlimit:10;stroke-dasharray:none;stroke-opacity:1"
         id="path36" /><path
         d="m 16024.7,23829.3 c 0,0 64.3,-296.2 352,-321.2"
         style="fill:none;stroke:#211c1d;stroke-width:75;stroke-linecap:round;stroke-linejoin:round;stroke-miterlimit:10;stroke-dasharray:none;stroke-opacity:1"
         id="path38" /><path
         d="m 11125.9,25198 c 0,0 73.3,-1514.8 2319.8,-2068.8 0,0 1994.5,-514.7 2734.2,454.5"
         style="fill:none;stroke:#211c1d;stroke-width:75;stroke-linecap:round;stroke-linejoin:round;stroke-miterlimit:10;stroke-dasharray:none;stroke-opacity:1"
         id="path40" /><path
         d="m 11499.4,24291.3 c 0,0 -117.9,-1728.7 1685.4,-2121.8 0,0 1529.8,-291.4 2138.7,902.4"
         style="fill:none;stroke:#211c1d;stroke-width:75;stroke-linecap:round;stroke-linejoin:round;stroke-miterlimit:10;stroke-dasharray:none;stroke-opacity:1"
         id="path42" /><path
         d="m 11873.4,22992.6 c 0,0 782.4,133 1290.8,-305.3 0,0 654.1,221.2 1227.5,-421.2"
         style="fill:none;stroke:#211c1d;stroke-width:75;stroke-linecap:round;stroke-linejoin:round;stroke-miterlimit:10;stroke-dasharray:none;stroke-opacity:1"
         id="path44" /><path
         d="m 13164.2,22687.3 c 0,0 -151,-54.9 -243.9,-205.1"
         style="fill:none;stroke:#211c1d;stroke-width:75;stroke-linecap:round;stroke-linejoin:round;stroke-miterlimit:10;stroke-dasharray:none;stroke-opacity:1"
         id="path46" /><path
         d="m 9036.05,23683.5 c 0,0 -689.24,2626.9 2096.15,3468.7 0,0 -356.6,2010.6 989.2,3165.1 0,0 1949.8,1705 3135.2,-1245.6 0,0 1913.7,1392.2 3033.3,-490.6 0,0 828.4,-1595.1 -888.2,-3359.1 0,0 971.3,-798.9 830.2,-2303.7 0,0 -94.8,-1197.4 -1287,-1859.7"
         style="fill:none;stroke:#211c1d;stroke-width:75;stroke-linecap:round;stroke-linejoin:round;stroke-miterlimit:10;stroke-dasharray:none;stroke-opacity:1"
         id="path48" /><path
         d="m 12999.8,25557.1 c 0,0 517.4,730.1 1483.4,181 0,0 737.2,-467.8 302.9,-1161.3 0,0 -258.7,-374.8 -1206.3,-218 0,0 -834.7,493.3 -580,1198.3 z"
         style="fill:none;stroke:#211c1d;stroke-width:75;stroke-linecap:round;stroke-linejoin:round;stroke-miterlimit:10;stroke-dasharray:none;stroke-opacity:1"
         id="path50" /><path
         d="m 13466.8,24436.6 c 0,0 -29.1,-509.4 -22.4,-694.4 0,0 378.2,532.1 517.7,578.8"
         style="fill:none;stroke:#211c1d;stroke-width:75;stroke-linecap:round;stroke-linejoin:round;stroke-miterlimit:10;stroke-dasharray:none;stroke-opacity:1"
         id="path52" /><path
         d="m 12424.3,30225.7 c 0,0 672.9,527.7 1497.3,186.4 0,0 373.1,-153.7 376.6,-496.9 0,0 -68.4,-213.5 -737.2,212.7 0,0 -372.6,232.3 -1136.7,97.8 z"
         style="fill:none;stroke:#211c1d;stroke-width:65;stroke-linecap:round;stroke-linejoin:round;stroke-miterlimit:10;stroke-dasharray:none;stroke-opacity:1"
         id="path54" /><path
         d="m 18059.4,28183 c 0,0 -437,1062 -1254.6,1076.3 0,0 -404.8,24.1 -442.4,-225.2 0,0 -57.1,-278.8 775.7,-239.5 0,0 379.8,9 921.3,-611.6 z"
         style="fill:none;stroke:#211c1d;stroke-width:65;stroke-linecap:round;stroke-linejoin:round;stroke-miterlimit:10;stroke-dasharray:none;stroke-opacity:1"
         id="path56" /><path
         d="m 13930.9,26436.4 c 0,0 -1035.6,796.2 -2144.6,941 0,0 -485.2,1361.8 801.6,2356.4 0,0 935.6,611.2 1723.7,-396.7 0,0 392.3,-467.4 101.9,-1585.7 0,0 -263.6,-829.8 -860.6,-1038.9"
         style="fill:none;stroke:#211c1d;stroke-width:75;stroke-linecap:round;stroke-linejoin:round;stroke-miterlimit:10;stroke-dasharray:none;stroke-opacity:1"
         id="path58" /><path
         d="m 14605.6,26183.5 c 0,0 1356.5,26.8 2376.1,-690.7"
         style="fill:none;stroke:#211c1d;stroke-width:75;stroke-linecap:round;stroke-linejoin:round;stroke-miterlimit:10;stroke-dasharray:none;stroke-opacity:1"
         id="path60" /><path
         d="m 14997.3,26163.7 c 0,0 -511.4,1244.1 684.2,2237.8 0,0 670.2,528.1 1479.8,53.6 0,0 544.2,-329.8 536.2,-1336.9 0,0 -80.4,-1036.5 -840.9,-1542"
         style="fill:none;stroke:#211c1d;stroke-width:75;stroke-linecap:round;stroke-linejoin:round;stroke-miterlimit:10;stroke-dasharray:none;stroke-opacity:1"
         id="path62" /><path
         d="m 13850.5,27902.3 c 0,-280.1 -227,-507.1 -507.1,-507.1 -280.1,0 -507.2,227 -507.2,507.1 0,280.1 227.1,507.2 507.2,507.2 280.1,0 507.1,-227.1 507.1,-507.2"
         style="fill:#211c1d;fill-opacity:1;fill-rule:nonzero;stroke:none"
         id="path64" /><path
         d="m 17019.2,26759.8 c 0,-277.3 -224.8,-502.2 -502.2,-502.2 -277.4,0 -502.3,224.9 -502.3,502.2 0,277.4 224.9,502.3 502.3,502.3 277.4,0 502.2,-224.9 502.2,-502.3"
         style="fill:#211c1d;fill-opacity:1;fill-rule:nonzero;stroke:none"
         id="path66" /><path
         d="m 12058.1,27329.2 c 0,0 446.7,-16.2 457.4,412.8 0,0 22.8,248 -412.9,256 0,0 270.8,1178.2 1265.4,1046.8 0,0 798.9,-147.4 482.5,-1454.8 0,0 -174.2,-595.1 -641.9,-701.9"
         style="fill:none;stroke:#211c1d;stroke-width:75;stroke-linecap:round;stroke-linejoin:round;stroke-miterlimit:10;stroke-dasharray:none;stroke-opacity:1"
         id="path68" /><path
         d="m 15398.5,26109.5 c 0,0 296.4,133.9 233.4,416.7 0,0 -33.5,206 -365,214.9 0,0 134,1081.3 1063.4,1127.8 0,0 863.2,33.9 713.1,-1347.6 0,0 -124.1,-576.6 -499.1,-771.7"
         style="fill:none;stroke:#211c1d;stroke-width:75;stroke-linecap:round;stroke-linejoin:round;stroke-miterlimit:10;stroke-dasharray:none;stroke-opacity:1"
         id="path70" /><path
         d="m 19385.5,22245.7 c 88.4,-33.4 180.2,-58.5 271.3,-83.3 247,-67.3 498.2,-112.4 753.5,-133 201.9,-16.4 404.3,-27.7 606.9,-23.1 57.8,1.3 115.6,3.5 173.4,6.8 0,0 4404.5,201 6267.7,-1184.1 0,0 699.7,416.5 1713.1,314.6 0,0 1392.2,-151.9 2250.5,829.3 0,0 410.6,430.7 542.9,1946.2 8.3,201.9 14.3,403.9 18.2,605.9 2.3,118.5 5.3,238.1 -2.1,356.5 0,0 -85.8,3032 1525.3,4870.4 0,0 1327,1853.1 3863.1,1058.7 0,0 1479.8,-441.4 1728.2,-2330.5 0,0 287.8,-1638.9 -1320.7,-1848 0,0 -993.7,-203.7 -1379.8,1254.6 -29.1,146.1 -61.8,301.2 -65.9,450.8 -1.4,48.4 -10.4,93.5 -21.9,140.7 -41.4,171 -122.8,334.2 -278.8,428 -114.8,69 -264.8,76.3 -394.7,56.4 0,0 -1537,-689.8 -2304.6,-3051.6 0,0 -222.5,-715.8 -227,-2284.1 0,0 136.7,-1723.7 -1284.1,-2855 0,0 -611.2,-471.9 -1733.2,-564.4 -196,-19.2 -394.8,-11 -591.5,-13.3 -91.5,-1.1 -182.9,-4 -274.2,-8.9 -113.4,-5.9 -226.7,-14.5 -339.7,-25.6 -117,-11.6 -234,-25.8 -349.4,-49 -102,-20.5 -201.3,-50 -299.4,-84.5 -10.9,-3.8 -22.4,-7.1 -33,-11.7 0,0 1541.9,-2361.3 207.7,-5267.8 0,0 1270.7,199.8 1618.3,-726.9 0,0 173.4,-580.8 -305.6,-1560.2 0,0 -243,-588 -395.8,-826.6 0,0 -687.3,-1368.2 -894.6,-2002.6 0,0 -471.7,-1324.4 -1121.4,-1772 0,0 -983.9,-781.9 -1491.9,341.8 0,0 -746.6,-993.2 -1718.4,-588.4 0,0 -508,158.1 -588.4,1028.5 0,0 -1348.5,-248.4 -1617.5,927.5 0,0 -137.5,425.4 520.1,974 0,0 593.4,470.1 885.6,591.7 0,0 -561.6,215.3 -687.6,334.6 0,0 -367.8,-1117.4 -1188.1,-1634.9 0,0 -888.2,-476.2 -1322.5,471.4 0,0 -541.5,-642.1 -1060.3,-702.3 120.1,-109.3 238.5,-220.9 352.4,-336.7 44.8,-45.4 89.6,-91.5 128.8,-141.9 0,0 257.4,-288.2 780.2,-375.3 0,0 820.3,-136.7 1090.2,-1171.5 0,0 117,-504 -536.7,-691.6 0,0 -357.8,-116.2 -876.1,230.5 0,0 -336.9,-1037.5 -1446.8,-262.7 0,0 -654.1,-554.9 -1180.4,-105.5 0,0 -284.2,303.9 -465.6,787.8 0,0 -206.4,601.8 -616.6,754.6 0,0 -87.1,24.1 -168.9,-68.4 0,0 -296.7,-192.6 -775.6,54.1 0,0 -153.7,14.3 -500.5,-394.5 0,0 -804.2,-794.9 -1577.6,-142.1 0,0 -486.6,827 696.6,1231.8 48.2,25 639.8,227.9 982.9,1207.7 0,0 -208.2,-120.2 -420,-133.6 0,0 757.8,722.1 288.7,2877.4 0,0 -1756,19.7 -3142.8,1277.9 0,0 -192.2,-476.3 -350.3,-752.4 -39.7,-69.2 -88,-133.3 -136.2,-196.8 -122.7,-161.8 -259.4,-310.2 -420.6,-434.6 -135.4,-104.4 -276,-201.8 -429.8,-277.4 0,0 -875.7,-504.9 -1070.96,-1604.5 0,0 -119.3,179.6 -331.08,116.6 0,0 224.29,-489.7 731.86,-804.2 0,0 1045.48,-521.8 546.88,-1262.7 0,0 -695.22,-860.6 -1908.73,664.9 0,0 -37.53,65.7 -187.66,2.7 0,0 -389.6,-198.4 -816.75,96.5 0,0 -384.25,45.5 -715.33,-702.4 0,0 -459.76,-892.7 -1014.69,-893.6 0,0 -410.16,-25.9 -679.12,386 0,0 -859.67,-779.2 -1433.36,321.7 0,0 -978.49,-420 -1318.96,255.6 0,0 -297.57,884.7 890.03,1359.2 0,0 334.22,131.3 772.08,197.4 0,0 237.25,61.3 384.25,252 0,0 327.06,439.7 1081.25,625.5 0,0 364.61,103.7 656.36,485.3 0,0 -108.57,42.9 -175.59,113.9 0,0 1201,76.4 2393.96,2595.1 0,0 85.78,170.2 139.4,470.4 0,0 93.83,3042.8 1116.12,4288.4 0,0 110.35,212.7 -313.21,66.6 0,0 620.6,1427.6 1769.45,2294"
         style="fill:none;stroke:#211c1d;stroke-width:75;stroke-linecap:round;stroke-linejoin:round;stroke-miterlimit:10;stroke-dasharray:none;stroke-opacity:1"
         id="path72" /><path
         d="m 27458.3,20829 c 0,0 469.2,-408.3 741.3,-814.5"
         style="fill:none;stroke:#211c1d;stroke-width:75;stroke-linecap:round;stroke-linejoin:round;stroke-miterlimit:10;stroke-dasharray:none;stroke-opacity:1"
         id="path74" /><path
         d="m 28407.3,14746.7 c 0,0 -817.6,-1620.5 -2295.6,-2086.1"
         style="fill:none;stroke:#211c1d;stroke-width:75;stroke-linecap:round;stroke-linejoin:round;stroke-miterlimit:10;stroke-dasharray:none;stroke-opacity:1"
         id="path76" /><path
         d="m 23297.7,11133.5 c 0,0 1411,-579.1 3339.4,332.3 0,0 791.7,368.2 1492.8,1045.1 0,0 -155.5,125.1 -410.2,149.7 0,0 576,503.1 624.6,760.5 0,0 -213.1,-127.4 -540.2,-59 0,0 294.9,416.4 446.8,453.9 0,0 -112.8,130.7 -380.8,130.6"
         style="fill:none;stroke:#211c1d;stroke-width:75;stroke-linecap:round;stroke-linejoin:round;stroke-miterlimit:10;stroke-dasharray:none;stroke-opacity:1"
         id="path78" /><path
         d="m 22610.1,11468.1 c 0,0 -1470.5,955.7 -1042.9,2816.2 0,0 214.1,781 1113.9,1475.8 0,0 1369.9,1044.2 717.6,2216.6"
         style="fill:none;stroke:#211c1d;stroke-width:75;stroke-linecap:round;stroke-linejoin:round;stroke-miterlimit:10;stroke-dasharray:none;stroke-opacity:1"
         id="path80" /><path
         d="m 25816.3,8200.2 c 0,0 29.1,995.9 874.5,1646.5"
         style="fill:none;stroke:#211c1d;stroke-width:75;stroke-linecap:round;stroke-linejoin:round;stroke-miterlimit:10;stroke-dasharray:none;stroke-opacity:1"
         id="path82" /><path
         d="m 23509.5,8640.3 c 0,0 41.1,1013.3 1386,1587.9"
         style="fill:none;stroke:#211c1d;stroke-width:75;stroke-linecap:round;stroke-linejoin:round;stroke-miterlimit:10;stroke-dasharray:none;stroke-opacity:1"
         id="path84" /><path
         d="m 14925.5,10178.6 c 0,0 227,182.7 428.9,120.2 0,0 25.1,-548.7 471.9,-790.4 0,0 85.8,370.4 185.9,470.5 0,0 207.3,-512.9 823.8,-604.1 0,0 30.4,691.7 328.9,795.4 0,0 202,-210.9 98.3,-491.5 0,0 388.7,418.2 514.7,479.8 0,0 241.3,-165.3 588,-159.9 0,0 -673.8,1079.4 21.4,3190.1 44.3,127.6 89.5,255 139.7,380.4 48.6,121.4 79.5,255 115,380.9 31.2,110.6 58.8,222.1 81.8,334.7 26.2,128.3 47.8,257.5 68.7,386.8 27.4,169.6 53,339.6 75.3,509.9 25.5,194.8 46.1,390.2 59.5,586.1 14.5,213.3 20.7,427 21.6,640.7 0.9,239 -4.1,478.1 -14.4,716.9 -11.1,258.7 -28.8,517.2 -57.4,774.6 -30.3,273.7 -73.7,545.7 -128,815.6 -58.6,291.1 -129.1,579.7 -202,867.5 -18,71 -34,142.9 -54.3,213.2"
         style="fill:none;stroke:#211c1d;stroke-width:75;stroke-linecap:round;stroke-linejoin:round;stroke-miterlimit:10;stroke-dasharray:none;stroke-opacity:1"
         id="path86" /><path
         d="m 18176.4,12394.5 c 0,0 1449.5,-2.9 3377.2,648"
         style="fill:none;stroke:#211c1d;stroke-width:75;stroke-linecap:round;stroke-linejoin:round;stroke-miterlimit:10;stroke-dasharray:none;stroke-opacity:1"
         id="path88" /><path
         d="m 19039.2,9602.3 c 0,0 -778.7,29.9 -961.3,430.5"
         style="fill:none;stroke:#211c1d;stroke-width:75;stroke-linecap:round;stroke-linejoin:round;stroke-miterlimit:10;stroke-dasharray:none;stroke-opacity:1"
         id="path90" /><path
         d="m 14794.2,12922.4 c 0,0 -171.6,884.7 -316.4,1281.5 0,0 -243.9,648.7 134.1,2568.2 55,284.7 124.9,571 218.1,845.6 80.6,237.4 179.6,468.4 250.7,709.1 79.6,269.6 144.7,548.3 156.8,830.2 6.2,144.6 -2.3,296.1 -51,433.5"
         style="fill:none;stroke:#211c1d;stroke-width:75;stroke-linecap:round;stroke-linejoin:round;stroke-miterlimit:10;stroke-dasharray:none;stroke-opacity:1"
         id="path92" /><path
         d="m 11651.4,14200.3 c 0,0 -1640.7,1258.2 -1507.1,4276.8 0,0 79.1,1865.8 1353.5,2855.6"
         style="fill:none;stroke:#211c1d;stroke-width:75;stroke-linecap:round;stroke-linejoin:round;stroke-miterlimit:10;stroke-dasharray:none;stroke-opacity:1"
         id="path94" /><path
         d="m 5900.57,12035.1 c 0,0 421.32,-158.2 800.22,-139.4 0,0 -56.3,-211.8 87.13,-371.3 0,0 95.19,225.6 232.79,268.5 0,0 21.46,-403.9 266.3,-627.3 0,0 178.71,128.7 271.64,452.2 0,0 191.24,-441.5 518.3,-591.6 0,0 -3.59,168 96.51,264.5 0,0 321.69,-98.3 503.99,-412.8 0,0 154.52,160.1 235.01,173.3"
         style="fill:none;stroke:#211c1d;stroke-width:75;stroke-linecap:round;stroke-linejoin:round;stroke-miterlimit:10;stroke-dasharray:none;stroke-opacity:1"
         id="path96" /><path
         d="m 18723.1,14295.7 c 0,0 1148.5,-16.8 2151.1,251.3 0,0 661.7,163 889.8,175.4"
         style="fill:none;stroke:#211c1d;stroke-width:75;stroke-linecap:round;stroke-linejoin:round;stroke-miterlimit:10;stroke-dasharray:none;stroke-opacity:1"
         id="path98" /><path
         d="m 10948,15038.7 c 0,0 202.9,709.3 1407.5,519.9 68.3,-14.3 136.9,-32.2 202.1,-57 48.3,-18.3 93,-44.7 143.1,-58.3 47.5,-12.9 95.4,-26.3 144.2,-33.2 63.4,-8.9 129,-10.4 192.9,-8.5 80.2,2.5 158.7,18.6 235.9,39.9 95.2,26.3 183.4,65.1 269,113.9 11.2,6.4 22.5,12.5 33.5,19.2 0,0 442.1,315.5 873.4,165"
         style="fill:none;stroke:#211c1d;stroke-width:75;stroke-linecap:round;stroke-linejoin:round;stroke-miterlimit:10;stroke-dasharray:none;stroke-opacity:1"
         id="path100" /><path
         d="m 20099.5,10304.6 c 0,0 80.4,1029 865.9,1577.7"
         style="fill:none;stroke:#211c1d;stroke-width:75;stroke-linecap:round;stroke-linejoin:round;stroke-miterlimit:10;stroke-dasharray:none;stroke-opacity:1"
         id="path102" /><path
         d="m 18073,11442.6 c 0,0 645.9,761.4 1088.2,876.7"
         style="fill:none;stroke:#211c1d;stroke-width:75;stroke-linecap:round;stroke-linejoin:round;stroke-miterlimit:10;stroke-dasharray:none;stroke-opacity:1"
         id="path104" /><path
         d="m 19978,7115.8 c 0,0 234.1,857.9 -1605,2362.7"
         style="fill:none;stroke:#211c1d;stroke-width:75;stroke-linecap:round;stroke-linejoin:round;stroke-miterlimit:10;stroke-dasharray:none;stroke-opacity:1"
         id="path106" /><path
         d="m 18531.2,6853.1 c 0,0 361.9,670.2 -1254.6,2246.5"
         style="fill:none;stroke:#211c1d;stroke-width:75;stroke-linecap:round;stroke-linejoin:round;stroke-miterlimit:10;stroke-dasharray:none;stroke-opacity:1"
         id="path108" /><path
         d="m 4868.92,8538.4 c 0,0 -216.27,682.8 1449.41,2137.5"
         style="fill:none;stroke:#211c1d;stroke-width:75;stroke-linecap:round;stroke-linejoin:round;stroke-miterlimit:10;stroke-dasharray:none;stroke-opacity:1"
         id="path110" /><path
         d="m 3435.56,8860.1 c 0,0 19.67,1050.9 1860.48,2309.1"
         style="fill:none;stroke:#211c1d;stroke-width:75;stroke-linecap:round;stroke-linejoin:round;stroke-miterlimit:10;stroke-dasharray:none;stroke-opacity:1"
         id="path112" /></g></g></svg>